<?xml version="1.0" encoding="UTF-8"?>
<svg width="32" height="32" viewBox="0 0 32 32" fill="none" xmlns="http://www.w3.org/2000/svg">
    <path d="M16 0C7.163 0 0 7.163 0 16C0 24.837 7.163 32 16 32C24.837 32 32 24.837 32 16C32 7.163 24.837 0 16 0Z" fill="#000000"/>
    <path d="M22.5 12.5L19.5 15.5L22.5 18.5L25.5 15.5L22.5 12.5Z" fill="#00FF99"/>
    <path d="M15.5 5.5L12.5 8.5L15.5 11.5L18.5 8.5L15.5 5.5Z" fill="#00FF99"/>
    <path d="M8.5 12.5L5.5 15.5L8.5 18.5L11.5 15.5L8.5 12.5Z" fill="#00FF99"/>
    <path d="M15.5 19.5L12.5 22.5L15.5 25.5L18.5 22.5L15.5 19.5Z" fill="#00FF99"/>
</svg> 